<?xml version="1.0" encoding="UTF-8" standalone="no"?>
<!-- Created with Inkscape (http://www.inkscape.org/) -->

<svg
   version="1.1"
   id="svg1"
   width="250"
   height="250"
   viewBox="0 0 156.25 156.25"
   xmlns="http://www.w3.org/2000/svg"
   xmlns:svg="http://www.w3.org/2000/svg">
  <defs
     id="defs1" />
  <g
     id="g1"
     transform="translate(-80.176124,0.81060701)">
    <g
       id="g418"
       transform="matrix(0.14144988,0,0,0.14524164,116.12774,14.714696)">
      <path
         style="fill:#b4bd35;stroke-width:2.73548"
         d="m -246.39367,653.61397 c -5.84848,-7.21449 -7.48087,-45.19219 -5.87537,-136.69199 2.19402,-125.03869 2.46707,-127.07883 20.80017,-155.41703 28.17267,-43.54763 65.44317,-65.64929 116.29596,-68.96431 36.533589,-2.38159 47.107522,-0.13419 76.546151,16.26915 18.786344,10.46785 38.93812031,26.50279 44.7817127,35.63321 l 10.6247103,16.60076 14.211832,-18.49688 c 18.869485,-24.55885 75.915384,-51.09015 110.030974,-51.17395 40.1738,-0.0988 95.95567,31.20788 120.70059,67.74108 17.84555,26.34701 20.52615,36.76441 22.61937,87.90381 1.30606,31.90805 4.33651,57.8372 6.73435,57.62031 2.39784,-0.21689 17.11945,-16.20403 32.71469,-35.527 l 28.35496,-35.13267 -34.11347,-38.21276 c -45.75958,-51.25832 -54.868,-66.57105 -49.63625,-83.44662 5.53677,-17.85947 27.0472,-29.92882 43.69779,-24.51851 7.03014,2.28431 30.0447,23.24216 51.14344,46.573 l 38.36136,42.41969 32.20319,-37.57303 c 17.71175,-20.66518 31.39223,-38.41117 30.40108,-39.43554 -0.99115,-1.02439 -25.72215,-6.54797 -54.95776,-12.27462 -30.06667,-5.88943 -63.67756,-17.54066 -77.37924,-26.8235 -22.86354,-15.49002 -46.65591,-53.32905 -46.42848,-73.83918 0.30081,-27.12726 7.57423,-26.92734 165.21828,4.54169 135.37727,27.02412 165.68884,30.8608 244.2255,30.91289 76.38979,0.0506 94.58619,2.22666 122.90188,14.69729 18.60729,8.19488 33.23659,19.17 33.23659,24.93455 0,7.11756 -4.15852,8.98411 -13.46869,6.04542 -7.40779,-2.33824 -19.19456,-6.07472 -26.19285,-8.3033 -10.11381,-3.22072 -26.86285,13.89849 -81.64355,83.44795 l -68.91938,87.49993 52.52783,54.09359 c 47.22543,48.63316 53.40589,52.91068 61.22631,42.37514 14.54882,-19.59992 10.37009,-34.77617 -18.36241,-66.68813 l -27.48926,-30.53115 18.72805,-24.02897 c 17.72502,-22.74205 29.5161,-26.55104 29.5161,-9.53486 0,4.21754 -4.64658,12.92473 -10.32575,19.3493 -9.39402,10.62698 -8.17866,14.31201 13.46869,40.83806 26.0466,31.91675 28.75007,46.30401 14.13696,75.23425 -19.59284,38.78899 -28.45734,40.38569 -58.82792,10.59629 -18.57279,-18.21734 -28.52837,-24.01001 -30.71635,-17.87237 -1.78049,4.99446 -10.28408,17.40441 -18.89691,27.57766 l -15.65964,18.4968 -28.24356,-27.57767 c -17.06378,-16.66146 -29.42074,-24.30329 -31.21745,-19.30562 -6.1155,17.01057 -30.33855,43.43609 -39.81586,43.43609 -5.40326,0 -11.56845,-4.65373 -13.70043,-10.34163 -5.56176,-14.83823 -15.90402,-12.75428 -15.90402,3.20464 0,13.94227 -18.14439,27.82024 -36.37288,27.82024 -5.67653,0 -30.96137,-21.98472 -56.18858,-48.85492 l -45.86764,-48.85489 -42.09858,48.49434 -42.09859,48.49434 -39.83556,-0.19507 c -24.92552,-0.12194 -42.64612,-3.66205 -47.3446,-9.45793 -6.26604,-7.72958 -11.49911,-7.55609 -31.61369,1.04808 -28.54237,12.20923 -84.77248,13.45657 -113.148474,2.50998 -11.111695,-4.28656 -31.47547,-19.00558 -45.252879,-32.70898 l -25.04982,-24.91525 -13.6989,17.82929 c -32.018795,41.6728 -122.002807,60.90485 -168.870947,36.09233 l -19.86863,-10.51867 v 40.16466 c 0,22.09057 -3.63655,43.88765 -8.08122,48.43797 -11.15016,11.41519 -42.43071,10.38727 -52.24293,-1.71678 z M 584.29304,528.59905 c 8.81793,-23.52536 3.12462,-42.50053 -19.48255,-64.93307 -12.96364,-12.8635 -23.57024,-25.54579 -23.57024,-28.1829 0,-2.63711 31.89757,-45.46332 70.88347,-95.16936 l 70.88347,-90.37465 h -33.57634 -33.57634 l -66.33261,84.45661 c -36.48293,46.45112 -68.79516,88.65422 -71.80497,93.78468 -3.8008,6.47877 9.64199,24.90564 44.00922,60.32613 27.21488,28.04893 51.50606,50.99805 53.9804,50.99805 2.47435,0 6.33826,-4.90746 8.58649,-10.90549 z m 97.37315,-6.84719 c 8.81948,-19.81671 7.92354,-22.13967 -24.21438,-62.78301 l -22.79485,-28.82757 71.14278,-90.34787 c 39.12851,-49.69132 71.14275,-91.09856 71.14275,-92.01609 0,-0.91753 -15.68509,-0.0309 -34.85575,1.97036 l -34.85572,3.6386 -63.04627,79.28579 c -34.67544,43.60719 -65.8376,84.27236 -69.24924,90.36706 -4.80826,8.58964 4.46054,22.92904 41.22227,63.77334 26.0839,28.98064 49.71627,52.69207 52.51641,52.69207 2.80012,0 8.64652,-7.9887 12.992,-17.75268 z m -506.48551,-7.30745 c 27.69999,-13.45692 42.81079,-40.45174 42.81079,-76.47967 0,-61.88798 -65.92917,-97.46354 -119.104916,-64.26933 -25.969444,16.21108 -37.131998,35.95694 -37.131998,65.68424 0,31.79081 17.27334,61.77893 43.086964,74.80299 28.2089,14.23257 41.47978,14.28196 70.33916,0.26177 z m -239.961213,-7.10418 c 59.408885,-35.92781 38.155845,-135.33721 -30.962857,-144.82627 -82.91705,-11.38337 -123.7783,96.36737 -55.19439,145.5472 19.63881,14.08252 62.268655,13.72582 86.157247,-0.72093 z M 534.5059,318.88323 c 0,-3.79193 -3.03045,-6.89441 -6.73435,-6.89441 -3.70389,0 -6.73434,3.10248 -6.73434,6.89441 0,3.79194 3.03045,6.89442 6.73434,6.89442 3.7039,0 6.73435,-3.10248 6.73435,-6.89442 z m 37.6353,-51.89576 c 9.96474,-13.37497 16.93749,-25.2185 15.49502,-26.31896 -1.44249,-1.10049 -55.65569,-12.12898 -120.47381,-24.50779 -64.81811,-12.3788 -126.18488,-24.19173 -136.37059,-26.25096 -25.86273,-5.2286 -24.95647,16.66384 1.77522,42.88315 16.96302,16.63787 34.3753,22.97285 106.06601,38.58918 112.54186,24.5149 111.95535,24.53421 133.50815,-4.39462 z m -723.75776,374.20972 c -0.61542,-20.36771 1.71966,-25.83166 11.00392,-25.74848 10.08919,0.0903 10.33148,1.08248 1.68359,6.89441 -8.97916,6.03452 -8.97916,7.54316 0,13.57769 5.92677,3.98315 6.82664,6.83246 2.17737,6.89441 -4.3583,0.0581 -9.31005,5.53493 -11.00392,12.17081 -1.69387,6.63586 -3.43132,0.43089 -3.86096,-13.78884 z m 43.99872,12.26474 c -4.92222,-13.13197 13.298525,-31.78582 26.125635,-26.74661 5.448647,2.14054 9.906643,11.31618 9.906643,20.39031 0,12.80532 -3.607356,16.49842 -16.115372,16.49842 -8.863462,0 -17.826076,-4.56396 -19.916906,-10.14212 z m 29.297926,-7.09392 c 0,-5.6879 -4.366845,-10.34164 -9.7041,-10.34164 -11.250694,0 -18.845456,9.84025 -12.560656,16.27442 8.048597,8.23989 22.264756,4.45178 22.264756,-5.93278 z m 30.777631,5.67036 c -6.491875,-17.31964 11.758249,-33.19421 27.437196,-23.86583 11.6876963,6.95372 11.5416034,7.44809 -2.259022,7.64418 -21.190613,0.3011 -25.872159,12.99715 -7.564424,20.51421 15.123253,6.20952 15.157403,6.41204 1.153166,6.8361 -7.937487,0.24037 -16.382623,-4.76754 -18.766916,-11.12866 z m 55.1733154,-5.63108 c -4.3165471,-22.84873 -0.03562,-35.49196 8.9147236,-26.32884 3.189416,3.26523 3.36587,15.16989 0.392125,26.45479 l -5.406805,20.51801 z m 31.2445666,7.59211 c -2.190139,-5.84306 -2.420217,-14.60418 -0.511311,-19.46919 1.908932,-4.865 3.710031,-1.86487 4.002428,6.66698 0.726341,21.19257 19.121044,19.73264 22.791328,-1.80889 2.71647,-15.94346 2.885958,-15.81106 2.130877,1.66466 -0.916169,21.20425 -21.758473,30.70097 -28.413322,12.94644 z m 51.163229,-6.07545 c 0,-9.88802 3.151928,-19.9725 7.004275,-22.40998 4.594107,-2.90681 5.426767,2.29099 2.419818,15.10554 -6.198415,26.41536 -9.424093,28.91553 -9.424093,7.30444 z m 38.161322,11.08381 c -8.14138,-8.33486 -4.67512,-28.32766 5.61194,-32.369 16.50994,-6.48604 30.30458,2.83046 30.30458,20.46687 0,12.68778 -3.62934,16.49842 -15.71349,16.49842 -8.6424,0 -17.73376,-2.06834 -20.20303,-4.59629 z m 22.44783,-12.63975 c 0,-5.6879 -4.5457,-10.34164 -10.10154,-10.34164 -5.55582,0 -10.10152,4.65374 -10.10152,10.34164 0,5.68788 4.5457,10.34161 10.10152,10.34161 5.55584,0 10.10154,-4.65373 10.10154,-10.34161 z m 34.58884,2.29812 c -0.50441,-10.11181 2.87097,-19.73787 7.50084,-21.39124 15.4658,-5.52302 25.26279,3.15391 24.33671,21.55434 -0.81743,16.24178 -1.23425,16.53624 -3.83555,2.70957 -1.60515,-8.53183 -7.0426,-15.51243 -12.08322,-15.51243 -5.04062,0 -10.47807,6.9806 -12.08323,15.51243 -2.57886,13.70742 -3.02517,13.37315 -3.83555,-2.87267 z m 57.44727,10.34163 c -2.46927,-2.52795 -4.48957,-10.28416 -4.48957,-17.23604 0,-11.33531 7.28797,-15.81605 21.88664,-13.45621 2.77792,0.44905 5.05076,-2.28603 5.05076,-6.07797 0,-3.79193 3.03045,-6.89441 6.73435,-6.89441 3.70389,0 6.73435,10.85869 6.73435,24.13045 0,20.68325 -2.24479,24.13047 -15.71349,24.13047 -8.64241,0 -17.73378,-2.06834 -20.20304,-4.59629 z m 22.44783,-12.63975 c 0,-5.6879 -4.54569,-10.34164 -10.10153,-10.34164 -5.55584,0 -10.10152,4.65374 -10.10152,10.34164 0,5.68788 4.54568,10.34161 10.10152,10.34161 5.55584,0 10.10153,-4.65373 10.10153,-10.34161 z m 31.44785,7.45845 c -5.09749,-13.59957 13.06123,-32.18991 26.34507,-26.97126 5.80595,2.28092 9.37694,10.38721 8.22304,18.6667 -2.4412,17.51629 -28.74658,23.83582 -34.56811,8.30456 z m 29.1613,-7.45845 c 0,-5.6879 -4.54569,-10.34164 -10.10153,-10.34164 -5.55583,0 -10.10153,4.65374 -10.10153,10.34164 0,5.68788 4.5457,10.34161 10.10153,10.34161 5.55584,0 10.10153,-4.65373 10.10153,-10.34161 z m 66.90438,2.60722 c -6.26103,-11.97692 -5.30693,-17.02485 5.26317,-27.84617 7.82402,-8.01 17.37656,-11.46283 24.24626,-8.76402 17.7029,6.9547 13.29783,15.23877 -6.08604,11.44524 -15.2159,-2.97784 -17.13443,-1.32912 -15.15227,13.02129 1.65287,11.96648 6.38648,16.28211 17.4218,15.88342 8.33376,-0.30108 15.15229,2.02579 15.15229,5.17081 0,12.49743 -33.47111,5.19554 -40.84521,-8.91057 z m 64.76941,2.74547 c -6.62245,-17.668 15.88194,-33.05212 28.88151,-19.74356 5.30487,5.43093 7.81068,14.76875 5.56851,20.75067 -5.4572,14.55923 -28.8719,13.87473 -34.45002,-1.00711 z m 26.86032,-2.36418 c 6.19793,-10.26683 -0.98808,-15.84882 -13.88199,-10.78335 -5.95035,2.33762 -8.93264,7.37463 -6.62736,11.19335 5.4587,9.04229 14.91731,8.8532 20.50935,-0.41 z m 30.45454,-0.52729 c -0.24845,-10.60609 4.04909,-19.98042 10.28238,-22.42922 15.75136,-6.18804 23.08049,1.15875 22.04541,22.09848 -0.80324,16.24943 -1.27942,16.62689 -3.83557,3.04031 -1.60514,-8.53183 -5.83579,-15.51243 -9.40143,-15.51243 -3.56564,0 -9.22369,6.9806 -12.57344,15.51243 -5.93929,15.12734 -6.10107,15.06008 -6.51735,-2.70957 z m 53.44794,-8.94877 c 0,-13.04795 3.03046,-25.641 6.73434,-27.98454 4.06708,-2.57334 6.73435,6.82282 6.73435,23.72357 0,15.39149 -3.03045,27.98456 -6.73435,27.98456 -3.70388,0 -6.73434,-10.67562 -6.73434,-23.72359 z m 35.50594,-3.85409 c 0,-17.06368 1.31331,-24.04428 2.91845,-15.51243 1.60516,8.53183 1.60516,22.49303 0,31.02486 -1.60514,8.53185 -2.91845,1.55125 -2.91845,-15.51243 z m 29.59277,22.98139 c -8.14136,-8.33486 -4.67512,-28.32766 5.61196,-32.369 16.50993,-6.48604 30.30457,2.83046 30.30457,20.46687 0,12.68778 -3.62935,16.49842 -15.71349,16.49842 -8.64241,0 -17.73378,-2.06834 -20.20304,-4.59629 z m 22.44783,-12.63975 c 0,-5.6879 -4.54568,-10.34164 -10.10152,-10.34164 -5.55585,0 -10.10152,4.65374 -10.10152,10.34164 0,5.68788 4.54567,10.34161 10.10152,10.34161 5.55584,0 10.10152,-4.65373 10.10152,-10.34161 z m 34.58884,2.29812 c -0.5044,-10.11181 2.87098,-19.73787 7.50086,-21.39124 15.46577,-5.52302 25.26278,3.15391 24.33671,21.55434 -0.81745,16.24178 -1.23427,16.53624 -3.83557,2.70957 -1.60515,-8.53183 -7.04258,-15.51243 -12.08322,-15.51243 -5.04062,0 -10.47806,6.9806 -12.08322,15.51243 -2.57888,13.70742 -3.02518,13.37315 -3.83556,-2.87267 z m 52.24931,5.47014 c 4.22132,-5.20727 5.78337,-14.51474 3.47125,-20.68325 -2.80757,-7.49034 -0.60941,-11.21548 6.61817,-11.21548 12.28001,0 14.66901,17.43539 3.36869,24.58537 -5.19573,3.28748 -4.68578,6.51117 1.6836,10.64294 6.59283,4.27672 4.68835,5.95644 -6.83996,6.03262 -12.78718,0.0846 -14.44457,-1.78462 -8.30175,-9.3622 z m 38.75396,-0.67434 c -4.92221,-13.13197 13.29856,-31.78582 26.12564,-26.74661 5.44865,2.14054 9.90664,11.31618 9.90664,20.39031 0,12.80532 -3.60734,16.49842 -16.11537,16.49842 -8.86345,0 -17.82608,-4.56396 -19.91691,-10.14212 z m 29.29793,-7.09392 c 0,-5.6879 -4.54566,-10.34164 -10.10151,-10.34164 -5.55585,0 -10.10152,4.65374 -10.10152,10.34164 0,5.68788 4.54567,10.34161 10.10152,10.34161 5.55585,0 10.10151,-4.65373 10.10151,-10.34161 z"
         id="path421" />
      <path
         style="fill:#5b94a8;stroke-width:2.73548"
         d="m -246.39367,653.61397 c -5.84848,-7.21449 -7.48087,-45.19219 -5.87537,-136.69199 2.19402,-125.03869 2.46707,-127.07883 20.80017,-155.41703 28.17267,-43.54763 65.44317,-65.64929 116.29596,-68.96431 36.533589,-2.38159 47.107522,-0.13419 76.546151,16.26915 18.786344,10.46785 38.98353051,26.57372 44.8826079,35.79085 9.7777471,15.27741 9.7877971,18.78163 0.1137834,39.65255 -13.4857034,29.09449 -13.6018594,79.42366 -0.2586853,112.11727 9.609773,23.54604 9.450786,26.60435 -2.2146237,42.60027 -6.9122077,9.47821 -25.6847483,24.33447 -41.7167993,33.01391 -34.911422,18.90042 -97.753754,21.47624 -128.380394,5.26215 l -19.86862,-10.51867 v 40.16466 c 0,22.09057 -3.63655,43.88765 -8.08122,48.43795 -11.15016,11.4152 -42.4307,10.38729 -52.24293,-1.71676 z M -64.780533,507.34023 c 59.408885,-35.92781 38.155845,-135.33721 -30.962857,-144.82627 -82.91705,-11.38337 -123.7783,96.36737 -55.19439,145.5472 19.63881,14.08252 62.268655,13.72582 86.157247,-0.72093 z m -86.836027,133.85696 c -0.61542,-20.36771 1.71966,-25.83166 11.00392,-25.74848 10.08919,0.0903 10.33148,1.08248 1.68359,6.89441 -8.97916,6.03452 -8.97916,7.54316 0,13.57769 5.92677,3.98315 6.82664,6.83246 2.17737,6.89441 -4.3583,0.0581 -9.31005,5.53493 -11.00392,12.17081 -1.69387,6.63586 -3.43132,0.43089 -3.86096,-13.78884 z m 43.99872,12.26474 c -4.92222,-13.13197 13.298525,-31.78582 26.125635,-26.74661 5.448647,2.14054 9.906643,11.31618 9.906643,20.39031 0,12.80532 -3.607356,16.49842 -16.115372,16.49842 -8.863462,0 -17.826076,-4.56396 -19.916906,-10.14212 z m 29.297926,-7.09392 c 0,-5.6879 -4.366845,-10.34164 -9.7041,-10.34164 -11.250694,0 -18.845456,9.84025 -12.560656,16.27442 8.048597,8.23989 22.264756,4.45178 22.264756,-5.93278 z m 30.777631,5.67036 c -6.491875,-17.31964 11.758249,-33.19421 27.437196,-23.86583 11.6876963,6.95372 11.5416034,7.44809 -2.259022,7.64418 -21.190613,0.3011 -25.872159,12.99715 -7.564424,20.51421 15.123253,6.20952 15.157403,6.41204 1.153166,6.8361 -7.937487,0.24037 -16.382623,-4.76754 -18.766916,-11.12866 z m 55.1733154,-5.63108 c -4.3165471,-22.84873 -0.03562,-35.49196 8.9147236,-26.32884 3.189416,3.26523 3.36587,15.16989 0.392125,26.45479 l -5.406805,20.51801 z m 31.2445666,7.59211 c -2.190139,-5.84306 -2.420217,-14.60418 -0.511311,-19.46919 1.908932,-4.865 3.710031,-1.86487 4.002428,6.66698 0.726341,21.19257 19.121044,19.73264 22.791328,-1.80889 2.71647,-15.94346 2.885958,-15.81106 2.130877,1.66466 -0.916169,21.20425 -21.758473,30.70097 -28.413322,12.94644 z m 51.163229,-6.07545 c 0,-9.88802 3.151928,-19.9725 7.004275,-22.40998 4.594107,-2.90681 5.426767,2.29099 2.419818,15.10554 -6.198415,26.41536 -9.424093,28.91553 -9.424093,7.30444 z m 38.161322,11.08381 c -8.14138,-8.33486 -4.67512,-28.32766 5.61194,-32.369 16.50994,-6.48604 30.30458,2.83046 30.30458,20.46687 0,12.68778 -3.62934,16.49842 -15.71349,16.49842 -8.6424,0 -17.73376,-2.06834 -20.20303,-4.59629 z m 22.44783,-12.63975 c 0,-5.6879 -4.5457,-10.34164 -10.10154,-10.34164 -5.55582,0 -10.10152,4.65374 -10.10152,10.34164 0,5.68788 4.5457,10.34161 10.10152,10.34161 5.55584,0 10.10154,-4.65373 10.10154,-10.34161 z m 34.58884,2.29812 c -0.50441,-10.11181 2.87097,-19.73787 7.50084,-21.39124 15.4658,-5.52302 25.26279,3.15391 24.33671,21.55434 -0.81743,16.24178 -1.23425,16.53624 -3.83555,2.70957 -1.60515,-8.53183 -7.0426,-15.51243 -12.08322,-15.51243 -5.04062,0 -10.47807,6.9806 -12.08323,15.51243 -2.57886,13.70742 -3.02517,13.37315 -3.83555,-2.87267 z m 57.44727,10.34163 c -2.46927,-2.52795 -4.48957,-10.28416 -4.48957,-17.23604 0,-11.33531 7.28797,-15.81605 21.88664,-13.45621 2.77792,0.44905 5.05076,-2.28603 5.05076,-6.07797 0,-3.79193 3.03045,-6.89441 6.73435,-6.89441 3.70389,0 6.73435,10.85869 6.73435,24.13045 0,20.68325 -2.24479,24.13047 -15.71349,24.13047 -8.64241,0 -17.73378,-2.06834 -20.20304,-4.59629 z m 22.44783,-12.63975 c 0,-5.6879 -4.54569,-10.34164 -10.10153,-10.34164 -5.55584,0 -10.10152,4.65374 -10.10152,10.34164 0,5.68788 4.54568,10.34161 10.10152,10.34161 5.55584,0 10.10153,-4.65373 10.10153,-10.34161 z m 31.44785,7.45845 c -5.09749,-13.59957 13.06123,-32.18991 26.34507,-26.97126 5.80595,2.28092 9.37694,10.38721 8.22304,18.6667 -2.4412,17.51629 -28.74658,23.83582 -34.56811,8.30456 z m 29.1613,-7.45845 c 0,-5.6879 -4.54569,-10.34164 -10.10153,-10.34164 -5.55583,0 -10.10153,4.65374 -10.10153,10.34164 0,5.68788 4.5457,10.34161 10.10153,10.34161 5.55584,0 10.10153,-4.65373 10.10153,-10.34161 z m 66.90438,2.60722 c -6.26103,-11.97692 -5.30693,-17.02485 5.26317,-27.84617 7.82402,-8.01 17.37656,-11.46283 24.24626,-8.76402 17.7029,6.9547 13.29783,15.23877 -6.08604,11.44524 -15.2159,-2.97784 -17.13443,-1.32912 -15.15227,13.02129 1.65287,11.96648 6.38648,16.28211 17.4218,15.88342 8.33376,-0.30108 15.15229,2.02579 15.15229,5.17081 0,12.49743 -33.47111,5.19554 -40.84521,-8.91057 z m 64.76941,2.74547 c -6.62245,-17.668 15.88194,-33.05212 28.88151,-19.74356 5.30487,5.43093 7.81068,14.76875 5.56851,20.75067 -5.4572,14.55923 -28.8719,13.87473 -34.45002,-1.00711 z m 26.86032,-2.36418 c 6.19793,-10.26683 -0.98808,-15.84882 -13.88199,-10.78335 -5.95035,2.33762 -8.93264,7.37463 -6.62736,11.19335 5.4587,9.04229 14.91731,8.8532 20.50935,-0.41 z m 30.45454,-0.52729 c -0.24845,-10.60609 4.04909,-19.98042 10.28238,-22.42922 15.75136,-6.18804 23.08049,1.15875 22.04541,22.09848 -0.80324,16.24943 -1.27942,16.62689 -3.83557,3.04031 -1.60514,-8.53183 -5.83579,-15.51243 -9.40143,-15.51243 -3.56564,0 -9.22369,6.9806 -12.57344,15.51243 -5.93929,15.12734 -6.10107,15.06008 -6.51735,-2.70957 z m 53.44794,-8.94877 c 0,-13.04795 3.03046,-25.641 6.73434,-27.98454 4.06708,-2.57334 6.73435,6.82282 6.73435,23.72357 0,15.39149 -3.03045,27.98456 -6.73435,27.98456 -3.70388,0 -6.73434,-10.67562 -6.73434,-23.72359 z m 35.50594,-3.85409 c 0,-17.06368 1.31331,-24.04428 2.91845,-15.51243 1.60516,8.53183 1.60516,22.49303 0,31.02486 -1.60514,8.53185 -2.91845,1.55125 -2.91845,-15.51243 z m 29.59277,22.98139 c -8.14136,-8.33486 -4.67512,-28.32766 5.61196,-32.369 16.50993,-6.48604 30.30457,2.83046 30.30457,20.46687 0,12.68778 -3.62935,16.49842 -15.71349,16.49842 -8.64241,0 -17.73378,-2.06834 -20.20304,-4.59629 z m 22.44783,-12.63975 c 0,-5.6879 -4.54568,-10.34164 -10.10152,-10.34164 -5.55585,0 -10.10152,4.65374 -10.10152,10.34164 0,5.68788 4.54567,10.34161 10.10152,10.34161 5.55584,0 10.10152,-4.65373 10.10152,-10.34161 z m 34.58884,2.29812 c -0.5044,-10.11181 2.87098,-19.73787 7.50086,-21.39124 15.46577,-5.52302 25.26278,3.15391 24.33671,21.55434 -0.81745,16.24178 -1.23427,16.53624 -3.83557,2.70957 -1.60515,-8.53183 -7.04258,-15.51243 -12.08322,-15.51243 -5.04062,0 -10.47806,6.9806 -12.08322,15.51243 -2.57888,13.70742 -3.02518,13.37315 -3.83556,-2.87267 z m 52.24931,5.47014 c 4.22132,-5.20727 5.78337,-14.51474 3.47125,-20.68325 -2.80757,-7.49034 -0.60941,-11.21548 6.61817,-11.21548 12.28001,0 14.66901,17.43539 3.36869,24.58537 -5.19573,3.28748 -4.68578,6.51117 1.6836,10.64294 6.59283,4.27672 4.68835,5.95644 -6.83996,6.03262 -12.78718,0.0846 -14.44457,-1.78462 -8.30175,-9.3622 z m 38.75396,-0.67434 c -4.92221,-13.13197 13.29856,-31.78582 26.12564,-26.74661 5.44865,2.14054 9.90664,11.31618 9.90664,20.39031 0,12.80532 -3.60734,16.49842 -16.11537,16.49842 -8.86345,0 -17.82608,-4.56396 -19.91691,-10.14212 z m 29.29793,-7.09392 c 0,-5.6879 -4.54566,-10.34164 -10.10151,-10.34164 -5.55585,0 -10.10152,4.65374 -10.10152,10.34164 0,5.68788 4.54567,10.34161 10.10152,10.34161 5.55585,0 10.10151,-4.65373 10.10151,-10.34161 z M 283.99892,548.12257 c 1.72657,-21.80359 5.04854,-41.19414 7.38214,-43.09009 2.3336,-1.89598 17.03805,-18.57183 32.67655,-37.05749 l 28.43364,-33.61028 -34.28588,-38.40588 c -45.93729,-51.45739 -55.04462,-66.7506 -49.80866,-83.63975 5.53677,-17.85947 27.0472,-29.92882 43.69779,-24.51851 7.03014,2.28431 30.0447,23.24216 51.14344,46.573 l 38.36136,42.41969 32.20319,-37.57303 c 17.71175,-20.66518 31.39223,-38.41117 30.40108,-39.43554 -0.99115,-1.02439 -25.72215,-6.54797 -54.95776,-12.27462 -30.06667,-5.88943 -63.67756,-17.54066 -77.37924,-26.8235 -22.86354,-15.49002 -46.65591,-53.32905 -46.42848,-73.83918 0.30081,-27.12726 7.57423,-26.92734 165.21828,4.54169 135.37727,27.02412 165.68884,30.8608 244.2255,30.91289 76.38979,0.0506 94.58619,2.22666 122.90188,14.69729 18.60729,8.19488 33.23659,19.17 33.23659,24.93455 0,10.15367 -2.39311,9.99688 -41.34513,-2.70862 -7.95421,-2.59453 -30.30682,20.85914 -79.95996,83.89869 l -68.91938,87.49993 52.52783,54.09359 c 47.22543,48.63316 53.40589,52.91068 61.22631,42.37514 14.54882,-19.59992 10.37009,-34.77617 -18.36241,-66.68813 l -27.48926,-30.53115 18.72805,-24.02897 c 17.72502,-22.74205 29.5161,-26.55104 29.5161,-9.53486 0,4.21754 -4.64658,12.92473 -10.32575,19.3493 -9.39402,10.62698 -8.17866,14.31201 13.46869,40.83806 26.0466,31.91675 28.75007,46.30401 14.13696,75.23425 -19.59284,38.78899 -28.45734,40.38569 -58.82792,10.59629 -18.57279,-18.21734 -28.52837,-24.01001 -30.71635,-17.87237 -1.78049,4.99446 -10.28408,17.40441 -18.89691,27.57766 l -15.65964,18.4968 -28.24356,-27.57767 c -17.06378,-16.66146 -29.42074,-24.30329 -31.21745,-19.30562 -6.1155,17.01057 -30.33855,43.43609 -39.81586,43.43609 -5.40326,0 -11.56845,-4.65373 -13.70043,-10.34163 -5.56176,-14.83823 -15.90402,-12.75428 -15.90402,3.20464 0,13.94227 -18.14439,27.82024 -36.37288,27.82024 -5.67653,0 -30.96137,-21.98472 -56.18858,-48.85492 l -45.86764,-48.85489 -42.41159,48.85489 c -33.1861,38.22783 -46.44973,48.85492 -60.97575,48.85492 -18.47421,0 -18.54892,-0.19202 -15.42489,-39.6429 z m 300.29412,-19.52352 c 8.81793,-23.52536 3.12462,-42.50053 -19.48255,-64.93307 -12.96364,-12.8635 -23.57024,-25.54579 -23.57024,-28.1829 0,-2.63711 31.89757,-45.46332 70.88347,-95.16936 l 70.88347,-90.37465 h -33.57634 -33.57634 l -66.33261,84.45661 c -36.48293,46.45112 -68.79516,88.65422 -71.80497,93.78468 -3.8008,6.47877 9.64199,24.90564 44.00922,60.32613 27.21488,28.04893 51.50606,50.99805 53.9804,50.99805 2.47435,0 6.33826,-4.90746 8.58649,-10.90549 z m 97.37315,-6.84719 c 8.81948,-19.81671 7.92354,-22.13967 -24.21438,-62.78301 l -22.79485,-28.82757 71.14278,-90.34787 c 39.12851,-49.69132 71.14275,-91.09856 71.14275,-92.01609 0,-0.91753 -15.68509,-0.0309 -34.85575,1.97036 l -34.85572,3.6386 -63.04627,79.28579 c -34.67544,43.60719 -65.8376,84.27236 -69.24924,90.36706 -4.80826,8.58964 4.46054,22.92904 41.22227,63.77334 26.0839,28.98064 49.71627,52.69207 52.51641,52.69207 2.80012,0 8.64652,-7.9887 12.992,-17.75268 z M 534.5059,318.88323 c 0,-3.79193 -3.03045,-6.89441 -6.73435,-6.89441 -3.70389,0 -6.73434,3.10248 -6.73434,6.89441 0,3.79194 3.03045,6.89442 6.73434,6.89442 3.7039,0 6.73435,-3.10248 6.73435,-6.89442 z m 37.6353,-51.89576 c 9.96474,-13.37497 16.93749,-25.2185 15.49502,-26.31896 -1.44249,-1.10049 -55.65569,-12.12898 -120.47381,-24.50779 -64.81811,-12.3788 -126.18488,-24.19173 -136.37059,-26.25096 -25.86273,-5.2286 -24.95647,16.66384 1.77522,42.88315 16.96302,16.63787 34.3753,22.97285 106.06601,38.58918 112.54186,24.5149 111.95535,24.53421 133.50815,-4.39462 z"
         id="path420" />
      <path
         style="fill:#176b89;stroke-width:2.73548"
         d="m -242.83047,652.76995 c -14.85584,-15.20894 -15.20649,-205.13276 -0.4725,-255.92676 17.30568,-59.65959 78.81882,-105.52136 141.41282,-105.43182 27.814607,0.0399 85.633428,28.76621 102.75769962,51.05364 13.06962638,17.01027 13.41439838,20.21478 4.51966768,42.00888 -12.7522631,31.24589 -12.2403159,88.49648 1.0262092,114.76092 10.3347595,20.46022 10.0813645,21.72132 -8.4179296,41.89349 -39.2926029,42.84584 -104.0114769,58.02038 -154.7991469,36.29553 -13.29699,-5.68788 -26.10094,-10.34161 -28.45323,-10.34161 -2.35226,0 -3.18756,14.02164 -1.85621,31.1592 4.04061,52.01127 -27.76853,83.14168 -55.71738,54.52853 z M -70.953345,515.03938 c 25.005483,-13.23818 46.457891,-48.10286 46.457891,-75.50385 0,-52.47455 -53.719679,-94.59181 -101.828446,-79.83547 -63.84284,19.5824 -82.00219,106.73346 -30.28242,145.33242 31.1721,23.26404 55.28947,26.08168 85.652975,10.0069 z m -10.73373,131.32863 c 0,-9.47983 2.272808,-17.23605 5.050749,-17.23605 2.777909,0 5.050764,7.75622 5.050764,17.23605 0,9.47981 -2.272855,17.23604 -5.050764,17.23604 -2.777941,0 -5.050749,-7.75623 -5.050749,-17.23604 z m 143.606653,-1.20086 c 2.873728,-14.42973 4.567177,-16.16342 6.529654,-6.68485 1.457309,7.03866 -0.288702,15.80573 -3.879997,19.4824 -4.216635,4.31685 -5.155217,-0.21646 -2.649657,-12.79755 z M 396.49941,656.7886 c -2.3593,-3.90817 0.34384,-5.064 6.33691,-2.70958 11.6667,4.58334 13.80128,9.52503 4.11438,9.52503 -3.48529,0 -8.18838,-3.06696 -10.45129,-6.81545 z m 206.66285,-10.42059 c 0.13723,-11.3758 1.64653,-15.19487 3.35399,-8.48682 1.70745,6.70804 1.59515,16.01551 -0.24954,20.68325 -1.8447,4.66775 -3.24171,-0.82065 -3.10446,-12.19643 z m 204.0848,10.34161 c 2.28916,-3.79193 5.49846,-6.89441 7.1318,-6.89441 1.63335,0 2.96973,3.10248 2.96973,6.89441 0,3.79193 -3.2093,6.89443 -7.1318,6.89443 -3.92248,0 -5.25884,-3.1025 -2.96973,-6.89443 z M 90.570476,638.89905 c 0.323159,-8.0316 1.918903,-9.66528 4.068682,-4.16538 1.945356,4.97692 1.706106,10.92335 -0.531675,13.21429 -2.237754,2.29096 -3.829404,-1.78106 -3.537007,-9.04891 z m 94.280904,0 c 0.32314,-8.0316 1.91889,-9.66528 4.06867,-4.16538 1.94535,4.97692 1.70611,10.92335 -0.53166,13.21429 -2.23777,2.29096 -3.82942,-1.78106 -3.53701,-9.04891 z m 505.07624,0 c 0.32312,-8.0316 1.91887,-9.66528 4.06864,-4.16538 1.94537,4.97692 1.70614,10.92335 -0.53164,13.21429 -2.23778,2.29096 -3.82943,-1.78106 -3.537,-9.04891 z m 117.31944,-2.87268 c -2.28911,-3.79192 -0.95275,-6.89441 2.96973,-6.89441 3.9225,0 7.1318,3.10249 7.1318,6.89441 0,3.79193 -1.33638,6.89441 -2.96973,6.89441 -1.63334,0 -4.84264,-3.10248 -7.1318,-6.89441 z M 284.71044,582.59465 c -0.34349,-2.84395 -0.0742,-19.02895 0.59842,-35.9667 1.03674,-26.1072 6.25835,-36.74646 34.29627,-69.88031 18.19034,-21.49646 33.07334,-41.06831 33.07334,-43.49301 0,-2.4247 -18.18275,-24.41821 -40.4061,-48.87444 -40.49439,-44.56306 -49.23392,-67.49039 -32.32488,-84.80132 17.27146,-17.68198 37.67784,-8.30682 80.31014,36.89636 37.70312,39.97675 43.54206,43.85164 50.78919,33.70502 4.50368,-6.30555 20.4684,-24.87773 35.47717,-41.27152 30.90662,-33.75873 35.29056,-29.53326 -49.99843,-48.19088 -45.59561,-9.97439 -57.66379,-15.72399 -79.12861,-37.69902 -20.72158,-21.21409 -25.32763,-30.8766 -25.32763,-53.13197 V 162.6845 l 166.67515,33.2726 c 145.90425,29.12618 177.40876,33.27421 252.8064,33.28566 73.11386,0.0116 90.16186,2.1182 112.80037,13.94202 14.668,7.66092 26.6691,16.96839 26.6691,20.68324 0,9.16008 -3.97697,8.56819 -28.04561,-4.17402 -11.35332,-6.01059 -23.09527,-8.33745 -26.09321,-5.17082 -17.14455,18.10923 -134.38619,172.10055 -134.40293,176.53182 -0.0109,2.91957 22.72468,29.29072 50.52378,58.60254 48.31522,50.94433 50.98763,52.70412 60.60916,39.91127 15.54488,-20.66864 12.16729,-37.7261 -13.92531,-70.32553 -23.99056,-29.97319 -24.38786,-35.33048 -4.3896,-59.18807 14.54849,-17.3561 23.3617,-7.52919 10.82087,12.06549 -10.16507,15.88258 -9.67867,17.91771 10.17637,42.57782 26.90337,33.41426 28.38948,68.25832 3.91517,91.79725 l -16.93654,16.28922 -27.67858,-27.15266 c -19.51537,-19.14457 -28.67071,-24.35963 -31.04256,-17.68249 -1.8502,5.20861 -11.43733,18.72057 -21.30473,30.02659 l -17.9407,20.55639 -26.21901,-29.7111 c -15.47122,-17.53182 -27.36115,-26.20327 -29.00522,-21.15382 -1.53241,4.7065 -10.47119,17.90745 -19.86396,29.33544 l -17.07775,20.77815 -15.94986,-15.34027 c -15.31057,-14.7254 -15.94987,-14.79469 -15.94987,-1.72852 0,18.91747 -12.86257,30.15834 -34.50924,30.15834 -14.2436,0 -27.76074,-10.84414 -60.43984,-48.48795 l -42.09306,-48.48795 -30.81058,36.42133 c -48.68239,57.54769 -59.58614,67.449 -74.27776,67.449 -7.57614,0 -14.05584,-2.32687 -14.39933,-5.17082 z m 310.40462,-77.35531 c 0,-6.62991 -11.74337,-25.71265 -26.09638,-42.40609 l -26.09637,-30.35172 69.86964,-89.38881 c 38.42832,-49.16384 69.86966,-91.78713 69.86966,-94.71843 0,-2.9313 -14.86285,-5.32963 -33.02855,-5.32963 h -33.02854 l -73.85206,94.55215 -73.85207,94.55216 51.32222,57.43886 c 51.27865,57.39012 51.33222,57.42626 63.10733,42.57238 6.48181,-8.17657 11.78512,-20.29095 11.78512,-26.92087 z m 94.28088,-0.9508 c 0,-7.15284 -10.6066,-25.02447 -23.57021,-39.71471 -12.96362,-14.69023 -23.5575,-29.43598 -23.54195,-32.76834 0.0156,-3.33235 30.3074,-44.8399 67.31522,-92.23901 37.00782,-47.39911 67.29968,-88.50707 67.31523,-91.35102 0.0159,-2.84393 -14.79918,-5.1708 -32.92163,-5.1708 h -32.94991 l -63.84518,81.42825 c -93.63534,119.42264 -90.19875,101.39222 -31.53053,165.42799 49.20368,53.70528 50.38314,54.4873 61.94386,41.07027 6.48181,-7.5226 11.7851,-19.52978 11.7851,-26.68263 z M 531.05917,310.15112 c -13.70265,-7.85066 -18.39739,-3.66828 -12.7612,11.3685 3.4414,9.1813 6.27908,9.83319 14.05275,3.22825 8.43357,-7.16558 8.26026,-9.12425 -1.29155,-14.59675 z m 43.40179,-39.98575 c 12.1034,-15.41905 20.94434,-29.10859 19.64655,-30.4212 -1.2978,-1.3126 -61.45354,-13.7197 -133.67945,-27.5713 -72.2259,-13.85161 -136.62312,-26.74229 -143.10493,-28.64595 -28.2325,-8.29166 -2.35693,49.43923 30.13951,67.24416 11.63208,6.37327 174.24865,44.89004 197.70128,46.82682 4.00998,0.33114 17.19364,-12.01349 29.29704,-27.43253 z"
         id="path419" />
      <path
         style="fill:#005f7e;stroke-width:2.73548"
         d="m 603.16226,646.36801 c 0.13723,-11.3758 1.64653,-15.19487 3.35399,-8.48682 1.70745,6.70804 1.59515,16.01551 -0.24954,20.68325 -1.8447,4.66775 -3.24171,-0.82065 -3.10446,-12.19643 z m -845.0322,6.07208 c -2.64479,-2.70766 -4.80871,-58.79911 -4.80871,-124.64768 0,-127.60434 4.90044,-153.30095 35.67675,-187.07919 40.6645,-44.63095 112.845052,-56.91197 169.491919,-28.83788 47.6444099,23.61246 53.362354,36.67777 39.5858484,90.45228 -10.7434714,41.9355 -10.6988334,46.27044 0.8642991,83.90641 11.8656055,38.62048 11.8509565,40.07358 -0.5453414,54.10646 -33.8343831,38.30122 -101.8857351,55.36787 -150.7925951,37.81736 -16.66752,-5.98122 -32.43279,-10.92011 -35.03399,-10.9753 -2.60116,-0.0553 -5.63164,19.29022 -6.73434,42.98976 -1.97394,42.42388 -2.32106,43.12181 -22.45002,45.14045 -11.24478,1.12771 -22.60902,-0.16496 -25.25382,-2.87267 z M -50.590225,498.94916 c 22.693694,-23.23309 26.145098,-30.8994 26.145098,-58.07356 0,-76.57116 -87.587013,-113.99581 -140.356383,-59.9722 -53.53824,54.81076 -15.02929,144.7103 62.02005,144.78654 21.293756,0.0212 30.816537,-4.85804 52.191235,-26.74078 z M 63.633073,638.89905 c 0.323159,-8.0316 1.918902,-9.66528 4.068682,-4.16538 1.945356,4.97692 1.706104,10.92335 -0.531648,13.21429 -2.237781,2.29096 -3.829431,-1.78106 -3.537034,-9.04891 z M 290.82482,584.19324 c -1.91911,-1.96472 -1.975,-19.80402 -0.12421,-39.64289 2.89423,-31.02373 7.89454,-41.27924 35.73745,-73.29664 l 32.37239,-37.22598 -43.47209,-48.06991 c -44.89726,-49.6458 -51.02205,-65.25467 -32.88954,-83.81817 18.5422,-18.98292 33.98899,-11.95546 76.86639,34.97009 l 41.85276,45.80415 36.05509,-40.63335 c 19.83029,-22.34834 36.19426,-42.35521 36.36439,-44.45973 0.17011,-2.10452 -23.17674,-7.86653 -51.8819,-12.80448 -63.60693,-10.94184 -98.97335,-28.49103 -116.40654,-57.7622 -12.96289,-21.76531 -18.13447,-60.04805 -8.11184,-60.04805 4.23675,0 136.21519,25.52009 287.06195,55.50789 18.09903,3.59802 71.50441,6.54186 118.67866,6.54186 71.78598,0 90.85217,2.30092 116.93192,14.11145 17.13836,7.7613 31.16064,15.85384 31.16064,17.98345 0,3.81221 -22.87375,-0.70795 -42.39917,-8.37863 -6.86742,-2.69792 -32.46797,24.47064 -82.10759,87.13651 l -72.12887,91.05671 54.103,55.38896 c 46.54011,47.64628 55.5768,54.13674 64.64607,46.431 18.17935,-15.44611 12.72078,-46.12855 -13.49071,-75.83115 l -24.03376,-27.23482 15.00317,-20.77523 c 8.25177,-11.42638 17.74917,-19.03782 21.10531,-16.91428 3.35615,2.12351 1.35901,9.22657 -4.43813,15.78458 -14.56756,16.47958 -13.47138,22.40183 9.66283,52.20439 24.60982,31.70347 25.80783,58.11276 3.81379,84.07214 l -16.38923,19.3441 -30.7512,-30.73674 c -20.65718,-20.64748 -30.7512,-27.04458 -30.7512,-19.48862 0,6.18645 -7.66585,20.575 -17.03524,31.97455 l -17.03525,20.72645 -27.26197,-28.81549 c -17.9665,-18.9903 -28.45108,-25.79015 -30.74934,-19.94273 -1.91805,4.88 -11.17235,18.22292 -20.56512,29.65091 l -17.07775,20.77815 -14.53283,-13.97738 -14.53283,-13.9774 -7.56641,20.52218 c -12.97117,35.18133 -35.27378,28.03479 -87.35532,-27.9917 l -45.09787,-48.51384 -47.57476,51.96371 c -44.21733,48.29655 -56.73307,57.52032 -65.65514,48.38618 z m 294.9157,-49.8595 c 14.94236,-20.15196 10.55487,-41.71285 -14.1957,-69.75991 -12.96362,-14.69023 -23.57021,-28.88594 -23.57021,-31.54601 0,-2.66008 31.81979,-45.00635 70.71066,-94.10284 38.89088,-49.09648 70.71067,-90.75447 70.71067,-92.57332 0,-1.81885 -16.49681,-3.307 -36.65959,-3.307 h -36.65959 l -56.37254,70.66777 c -31.0049,38.86727 -64.87627,82.3101 -75.26972,96.53961 l -18.89719,25.87187 52.56554,55.13753 c 28.91105,30.32564 53.94389,55.13753 55.62852,55.13753 1.68465,0 7.08877,-5.42936 12.00915,-12.06523 z m 94.28091,0 c 12.1842,-16.43218 11.63862,-46.37247 -1.04136,-57.14603 -5.72874,-4.86744 -16.53668,-17.65004 -24.01763,-28.40579 l -13.60174,-19.55593 71.47847,-91.36706 71.47849,-91.36706 -31.45291,-2.13598 c -17.29909,-1.17479 -35.40324,-0.58406 -40.23147,1.31274 -4.8282,1.8968 -40.94622,44.46172 -80.26228,94.5887 l -71.48376,91.13998 22.08214,24.75236 c 47.05532,52.74534 82.47261,90.2493 85.22795,90.2493 1.58285,0 6.9037,-5.42936 11.8241,-12.06523 z M 537.25991,310.97312 c -1.95188,-3.2333 -9.36598,-5.87871 -16.47577,-5.87871 -11.46023,0 -12.02638,2.02337 -4.9899,17.83379 7.30334,16.41012 8.61862,16.87942 16.47577,5.8787 4.69635,-6.57528 6.9418,-14.60049 4.9899,-17.83378 z m 37.89805,-40.66873 c 11.86943,-15.34257 20.25958,-29.24821 18.64477,-30.90138 -2.70577,-2.7701 -271.80282,-58.20867 -283.21395,-58.3469 -2.77793,-0.0338 -5.05077,5.90574 -5.05077,13.19867 0,17.74156 28.92045,52.02177 52.05487,61.70206 18.41001,7.70343 162.99182,40.22143 184.76508,41.55565 6.17057,0.37813 20.93058,-11.86552 32.8,-27.2081 z"
         id="path418" />
    </g>
  </g>
</svg>
